<mxfile host="app.diagrams.net" agent="Mozilla/5.0 (Macintosh; Intel Mac OS X 10_15_7) AppleWebKit/537.36 (KHTML, like Gecko) Chrome/129.0.0.0 Safari/537.36" version="24.7.16">
  <diagram name="Page-1" id="X4Xh8yn3M4ekpazrabrX">
    <mxGraphModel dx="920" dy="-632" grid="1" gridSize="10" guides="1" tooltips="1" connect="1" arrows="1" fold="1" page="1" pageScale="1" pageWidth="827" pageHeight="1169" math="0" shadow="0">
      <root>
        <mxCell id="0" />
        <mxCell id="1" parent="0" />
        <mxCell id="X1ndT8c5_JUK3LnOh9pi-3" value="" style="shape=image;verticalLabelPosition=bottom;labelBackgroundColor=default;verticalAlign=top;aspect=fixed;imageAspect=0;image=data:image/png,iVBORw0KGgoAAAANSUhEUgAAC7gAAAfQCAMAAABlzOIIAAAABGdBTUEAALGPC/xhBQAAAAFzUkdCAK7OHOkAAADAUExURUdwTGRO8GVP8GRO8GRO8GVO8GRO8GRP8GVO72VO8GVO8GRO8GRO8GRP8GVO8GVP8P////Xz/npm8v7+/2ZQ8Let+GlT8Pv6/2tW8e7s/W9a8d3Z/JaH9a+k96ue98nB+pKC9cK5+Y5+9IRy8+rn/ebi/aea9+Ld/NHK+4h39M3G+r60+Xxq8rOo+JqL9XJe8YBu87qw+It69J2P9tXO+6OW9vn4/trV+3Vh8sW9+aCT9tfR+3hk8vHv/vf2/vTy/uSlSDgAAAAPdFJOUwCabVa8HPCqC4Mw+c7hQstasO0AACAASURBVHja7MEBAQAAAICQ/q/uCAoAAAAAAAAAAAAAAAAAAAAAAAAAAAAAAAAAAAAAAAAAAAAAAAAAAAAAAAAAAAAAAAAAAAAAAAAAAAAAAAAAAAAAAAAAAAAAAAAAAAAAAAAAAAAAAAAAAAAAAAAAAAAAAAAAAAAAAAAAAAAAAAAAAAAAAAAAAAAAAAAAAAAAAAAAAAAAAAAAAAAAAAAAAAAAAAAAAAAAAAAAAAAAAAAAAAAAAAAAAAAAAAAAAAAAAAAAAAAAAAAAAAAAAAAAAAAAAAAAAAAAAAAAAAAAAAAAAAAAAAAAAAAAAAAAAAAAAAAAAAAAAAAAAAAAAAAAAAAAAAAAAAAAAAAAAAAAAAAAAAAAAAAAAAAAAAAAAAAAAAAAAAAAAAAAAAAAAAAAAAAAAAAAAAAAAAAAAAAAAAAAAAAAAAAAAAAAAAAAAAAAAAAAAAAAAAAAAAAAAAAAAAAAAAAAAAAAAAAAAAAAAAAAAAAAAAAAAAAAAAAAAAAAAAAAAAAAAAAAAAAAAAAAAAAAAAAAAAAAAAAAAAAAAAAAAAAAAAAAAAAAAAAAAAAAAAAAAAAAAAAAAAAAAAAAAAAAAAAAAAAAAAAAAAAAAAAAAAAAAAAAAAAAAAAAAAAAAAAAAAAAAAAAAAAAAAAAAAAAAAAAAAAAAAAAAAAAAAAAAAAAAAAAAAAAAAAAAAAAAACA2bmDFABBKIqiZJJJRZP2v9bW4ETFf84afHD5RAAAAAAAAAAAAAAAAAAAAAAAAAAAAAAAAAAAAAAAAAAAAAAAAAAAAAAAAAAAAAAAAAAAAAAAAAAAAAAAAAAAAAAAAAAAAAAAAAAAAAAAAAAAAAAAAAAAAAAAAAAAAAAAAAAAAAAAAAAAAAAAAAAAAAAAAAAAAAAAAAAAAAAAAAAAAAAAAAAAAAAAAAAAAAAAAAAAAAAAAAAAAAAAAAAAAAAAAAAAAAAAAAAAAAAAAAAAAAAAAAAAAAAAAAAAAAAAAAAAAAAAAAAAAAAAAAAAAAAAAAAAAAAAAAAAAAAAAAAAAAAAAAAAAAAAAAAAAAAAAAAAAAAAAAAAAAAAAAAAAAAAAAAAAAAAAAAAAAAAAAAAAAAAAAAAAAAAAAAAAAAAAAAAAAAAAAAAAAAAAAAAAAAAAAAAAAAAAAAAAAAAAAAAAAAAAAAAAAAAAAAAAAAAAAAAAAAAAAAAAAAAAAAAAAAAAAAAAAAAAAAAAAAAAAAAAAAAAAAAAAAAAAAAAAAAAAAAAAAAAAAAAAAAAAAAAAAAAAAAAAAAAAAAAAAAAAAAAAAAAAAAAAAAAAAAAAAAAAAAAAAAAAAAAAAAAAAAAAAAAAAAAAAAAADA1FIhtGoDjXaPJrhkBAAMUl5CyzbQqHo0wRUjAEC4M8An3IU7wh0A4Y6Lu3BHuAOAcMfFXbgj3AEQ7ri4I9wR7gAId1zchTvCHQCEOy7uwh3hDoBwZyW3DQh3hDsAwh3hvmC4f16NcAcA4U73b9yFe6vNqxHuACDc6e+xAeGOcAdAuCPchTvCHQCEO8LdZBDuAKgQYjhswGQQ7gCoEOZ32UCj7K8ywh0AhDsDnEbws3evu3HqUABGxXUAA/nD+z9r055TVWkzGWgn8W2tR8jY0hfLbF+zWjPCHQCEOxEMNsE1W3DkLtwBQLjz9Rab4JrRmhHuACDciWC3Ca6xZIQ7AAh3YuhsgksGS0a4A4BwJ4bWJrhksWSEOwAIdyI4Zpvgkt2aEe4AINyJobEJLuksGeEOAMKdCAfuobcJLmktGuEOAMKdGFab4JLGkhHuACDciSHYBJf0loxwBwDhThSeTr1k9W6qcAcA4U4Unk69JFgxwh0AhDtReIHpCu8vIdwBEO7EcXiB6QrvLyHcARDuRGKQ+xWmQSLcARDuRDpxNw/yCtMgEe4ACHciCZNtcJ5pkAh3AIQ7sRgrc8FovQh32wAA4U4kxsqcZ6gMwh0A4U4sx2wbnLZbLwh3AIQ7sfS2wWmtd1MR7gAId2LZbAP7BeEOgBAhA4N9cNZmtSDcARDuROPr1LN8m4pwB0C4E5G3U8/qLBaEOwDCnXi8nXqWd1MR7gAId2LydupJq6EyCHcAhDsR7TbCKVOwVhDuAAh3IvIE0zmeX0K4AyDciegILrmfM1ssCHcAhDsxBZfcT3HFHeEOgHAn7pm7Se5nmOKOcAdAuBOZSe5ntA7cEe4ACHfinrhvdoLNgnAHQIuQgcVWeGy0ThDuAAh3Ih+5Gwj5mGGQCHcAhDvRGQj52OyKO8IdAOFOdIO98MhmlSDcARDuROeuzCNuyiDcARDuuCuTgcYiQbgDINxJgLkyD7gpg3AHQLgT3xHclfmYmzIIdwCEO+7KZKAxUwbhDoBwx12Z5E1eX0K4AyDcSUNjN3ygs0AQ7gAId9IwTrbDfb0FgnAHQLiTiM52uGuwPBDuAAh3EnH0tsNds/WBcAdAuJMMn6fetZkpg3AHQLiTzJG7Ue73+DQV4Q6AcCchPk+9p3fgjnAHQLiTkNaGeNdiaSDcARDupGSzId7l1VSEOwDCnbSYCPmeIVgZCHcAhDtJWe2Id8wO3BHuAAh30nLstsQfptHCQLgDINzRJMlrHbhjkwAg3EmOR5j+OHDfrAqEOwDCHVHiwB17BACEO9cdjtx/O3B3wx3hDoBwJ0W9TfHGbBYkwh0A4U6SR+4GyzhwR7gDINxx5J7bgbsb7gh3AIQ7iXLk/svgwB3hDoBwJ1WeT/2lceCOcAdAuJOqo7Uv/rf4MhXhDoBwJ13jZGP8p7cYEO4ACHfSFRob44fOWkC4AyDcSbrcvcL03bQFV9wR7gAId9J1BCMhvzMKEuEOgHAn9XTvbA2jIBHuAAh30rf5PtWXqQh3AIQ7GRy5+z61c1EG4Q6AcCcDtb+f6qIMwh0A4Y7LMjnsDG8vIdwBEO5kYa56Y+wWAMIdAOGOyzLJmzY33BHuAAh3XJaxLxDuACBQeJp6J8u0nkxFuAMg3MlHtc8wmSiDcAdAuJOVcahzV6x+eoQ7AMKdrI7c+yo3xeyXR7gDINzJrNxrnAlpEiTCHQDhTn7qu+bugjvCHQDhTobGpbIdMbngjnAHQLiT4V2ZY61smnvjR0e4AyDcyTLd68qU1i+OcAdAuJPpmXtb0X7Yg18c4Q6AcCdX9XygOmxeTEW4AyDcyVao5QPVSbcj3AEQ7uSskhdUp95PjXAHQLiT9ZH7VsVoGQNlEO4ACHcyd/QVlPvsngzCHQDhjlhJnkGQ2AsACHdKOHNvCt8Jnd8Y4Q6AcEe5p9/tBrgj3AEQ7pQhzAXvAw8vIdwBEO6Uc+Ze7hOq++jnRbgDINxR7qlbRgNlEO4ACHdKUma577od4Q6AcKewM/cS77m7345wB0C4U57yZsuYJ4NwB0C4U+KZe2nl3gX3ZBDuAAh3ChTKyhbvpSLcARDulHrm3k/lrP/ZcTvCHQDhTrHlvg6FrP7J8ke4AyDcKbnct6WMbu/9lgh3AIQ7RZf72BWw9ofNPRmEOwDCncKF/J9i8uwSwh0A4U4V9ZL5J6qt8e0IdwCEO1XI+hPV6abbEe4ACHfqkPNF92H1+yHcARDuVCPMma763WupCHcAhDs1nbkffY7XZabZT4dwB0C4U5kMr8ssrskg3AEQ7lR46t5kNl2mHf1oCHcAhDs1lntWz6gOFjzCHQDhTq3lHuZsDt07x+0IdwCEOxWn+5rHoftwezG9HeEOgHCn6nTP4aa72+0IdwCEO2ypj5cZej8Swh0A4Q4vxy3lme7T7M0lhDsAwh1+SPgj1W6T7Qh3AIQ7/Dx039okF/nilgzCHQDhDm/06c2XGW4vjtsR7gAId3h76H4klu7DPMp2hDsAwh3e65p00n2ajYBEuAMg3OGOkMiAGdmOcAdAuMPHmvin7sM8GgGJcAdAuMMDfdwXmYZGtiPcARDucMKxdtHmui+312rX7Qh3AIQ7nEr3rY1x2X3qVn97hDsAwh2upPvX35hZfJGKcAdAuMNftPs4f92x+9R6JBXhDoBwh788dX/p26+47T51t9HFdoQ7AMId/kX/2dfdd2NkEO4ACHd4wrl7uH1au09dMx6HbEe4AyDc4SnxHrZmf/qlmaHtw4srMgh3AIQ7PDPdj/HWPu9V1aFrNiftCHcAhDt8htd47+d/P3lf2mZ7/VdAtiPcARDu8Jn5vn5j5951GATBAIyGi6KIduH9n7Vak3bp0HSwHc6ZWJj58gcIsX5X71NNc/ZbO8IdAOEO11ybufW+ljnVz9+s7skeSzs2mrQj3AEQ7nBlvh8JvrQcYtrq8H4CPw11S3Eubew3zY5wB0C4ww/7/RHkvS9raznnUkIIpeyr1tbxVfgg3AEQ7vAfA/gz48/vHZf+XIJwB0C4AyDcARDuAMIdAIQ7gHAHQLgDINwBEO4Awh0AhDuAcAdAuAMIdwAQ7gDCHQCEO4BwB0C4Awh3ABDuAMIdAOEOgHAHQLgDCHcAEO4Awh0A4Q6AcAdAuAMIdwAQ7gDCHQDhDiDcAUC4Awh3AIS7YxhAuAMg3AGEOwAIdwDhDoBwB0C4AyDcAYQ7AAh3AOEOgHAHEO4AINwBhDsACHcA4Q6AcAcQ7gAg3AGEOwDCHQDhDoBwBxDuACDcAYQ7AMIdAOEOgHAHEO4AINwBhDsAwh1AuAOAcAcQ7gAg3AGEOwDCHUC4A4BwBxDuAAh3AIQ7AMIdQLgDgHAHEO4ACHcA4Q4Awh1AuAOAcAcQ7gAIdwDhDgDCHUC4AyDcARDuAAh3AOEOAMIdQLgDINwBEO4ACHcA4Q4Awh1AuAMg3AGEOwAIdwDhDgDCHUC4AyDcAYQ7AAh3AOEOgHAHQLgDINwBhDsACHcA4Q6AcAcQ7gAg3AGEOwAIdwDhDoBwBxDuACDcAYQ7AMIdAOEOgHAHEO4AINwBhDsAwh0A4Q6AcAcQ7gAg3AGEOwDCHUC4A4BwBxDuACDcAYQ7AMIdQLgDgHAHEO4ACHcAhDsAwh1AuAOAcAcQ7gAIdwDhDgDCHUC4A4BwBxDuAAh3AOEOAMIdQLgDINwBEO4ACHcA4Q4Awh1AuAMg3AEQ7gAIdwDhDgDCHUC4AyDcAYQ7AAh3AOEOAMIdQLgDINwBhDsACHcA4Q6AcAdAuAMg3AGEOwAIdwDhDoBwBxDuACDcAYQ7AAh3AOEOgHAHEO4AINwBhDsAwh0A4Q6AcAcQ7gAg3AGEOwDCHQDhDoBwBxDuACDcAYQ7AMIdQLgDgHAHEO4AINwBhDsAwh1AuAOAcAcQ7gAIdwCEOwDCHUC4A4BwBxDuAAh3AOEOAMIdQLgDgHAHEO4ACHcA4Q4Awh1AuAMg3AEQ7gAIdwDhDgDCHUC4AyDcARDuAAh3AOEOAMIdQLgDINwBhDsACHcA4Q4Awh1AuAMg3AGEOwAIdwDhDoBwB0C4AyDcAYQ7AAh3AOEOgHAHEO4AINwBhDsACHcA4Q6AcAcQ7gAg3AGEOwDCHQDhDoBwBxDuACDcAYQ7AMIdAOEOgHAHEO4AINwBhDsAwh1AuAOAcAcQ7gAg3AGEOwDCHUC4A4BwBxDuAAh3AIQ7AMIdQLgDgHAHEO4ACHcA4Q4Awh1AuAOAcAcQ7gAIdwDhDgDCHUC4AyDcARDuAAh3AOEO3NmtAwEAAAAAQf7WiZTEV8e96rhXddyrOu5VHfeq415Vx73quFd13KuOe1Ud96rjXlXHveq4V3Xcq457VR33quNe1XGv6rhXddyrjntVHfeq417Vca867lV13KuOe1Ud96rjXtVxrzruVXXcq457Vce9quNe1XGvOu5VddyrjntVx72q417Vca867lV13KuOe1XHveq4V9VxrzruVXXcq457Vce96rhX1XGvOu5VHfeqjntVx73quFfVca867lUd96rjXlXHveq4V9VxrzruVR33quNeVce96rhXddyrOu5VHfeq415Vx73quFd13Ks67lUd96rjXlXHveq4V3Xcq457VR33quNeVce96rhXddyrjntVHfeq417Vca/quFd13KuOe1Ud96rjXtVxrzruVXXcq457VR33quNe1XGvOu5VddyrjntVx72q417Vca867lV13KuOe1XHvarjXtVxrzruVXXcq457Vce96rhX1XGvOu5VddyrjntVx73quFfVca867lUd96qOe1XHveq4V9VxrzruVR33quO+G1Ud96rjXlXHveq4V3Xcq457VR33quNe1XGv6rhXddyrjntVHfeq417Vca/quFd13KuOe1Ud96rjXtVxrzruVXXcq457VR33quNe1XGvOu5VddyrjntVx72q417Vca867lV13KuOe1XHvarjXtVxrzruVXXcq457Vce96rhX1XGvOu5VHfeqjntVx73quFfVca867lUd96qOe1XHveq4V9VxrzruVR33quNeVce96rhX1XGvOu5VHfeq415Vx73quFd13Ks67lUd96rjXlXHveq4V3XcqzruVR33quNeVce96rhXddyrjntVHfeq417VcZ/hquNe1XGvOu5VddyrjntVx72q417Vca867lV13KuOe1XHveq4V9VxrzruVXXcq457Vce96rhX1XGvOu5VHfeqjntVx73quFfVca867lUd96qOe1XHveq4V9VxrzruVR33quNeVce96rhX1XGvOu5VHfeq415Vx73quFd13Ks67lUd96rjXlXHveq4V3Xcq457VR33quNeVce96rhXddyrjntVHfeq417Vca/quFd13KuOe1Ud96rjXtVxr+q4V3Xcq457VR33quNe1XGvOu5VddyrjntVHfeq417Vca867lV13KuOe1XHvarjXtVxrzruVXXcq457Vce96rhX1XGvOu5VddyrjntVx73quFfVca867lUd96qOe1XHveq4V9VxrzruVR33qo57Vce96rhX1XGvOu5VHfeq415Vx73quFfVca867lUd96rjXlXHveq4V3XcqzruVR33quNeVce96rhXddyrjnuF3ToQAAAAABDkb51ISXx13KuOe1Ud96rjXtVxrzruVXXcq457Vce9quNe1XGvOu5VddyrjntVx72q417Vca867lV13KuOe1XHveq4V9VxrzruVXXcq457Vce96rhX1XGvOu5VHfeqjntVx73quFfVca867lUd96rjXlXHveq4V9VxrzruVR33quNeVce96rhXddyrOu5VHfeq415Vx73quFd13Ks67lUd96rjXlXHveq4V3Xcq457VR33quNeVce96rhXddyrjntVHfeq417Vca/quFd13KuOe1Ud96rjXtVxrzruVXXcq457VR33quNe1XGvOu5VddyrjntVx72q417Vca867lV13KuOe1XHvarjXtVxrzruVXXcq457Vce96rhX1XGvOu5VddyrjntVx73quFfVca867lUd96qOe1XHveq4V9VxrzruVR33quNeVce96rhX1XGvOu5VHfeq415Vx73quFd13Ks67lUd96rjXlXHveq4V3XcqzruVR33quNeVce96rhXddyrjntVHfeq415Vx73quFd13KuOe1Ud96rjXtVxr+q4V3Xcq457VR33quNe1XGvOu5VddyrjntVHfeq417Vca867lV13KuOe1XHvarjXtVxrzruVXXcq457Vce9quNe1XGvOu5VddyrjntVx73quFfVca867lV13KuOe1XHveq4V9VxrzruVR33qo57Vce96rhX1XGvOu5VHfeq415Vx73quFfVca867lUd96rjXlXHveq4V3XcqzruVR33quNeVce96rhXddyrOu5VHfeq415Vx73quFd13KuOe1Ud96rjXlXHveq4V3Xcq457VR33quNe1XGv6rhXddyrjntVHfeq417Vca867lV13KuOe1Ud96rjXtVxrzruVXXcq457Vce9quNe1XGvOu5VddyrjntVx72q417Vca867lV13KuOe1XHveq4V9VxrzruVXXcq457Vce96rhX1XGvOu5VHfeqjntVx73quFfVca867lUd96rjXlXHveq4V9VxrzruVR33quNeVce96rhXddyrOu5VHfeq415Vx73quFd13Ks67lUd96rjXlXHveq4V3Xcq457VR33quNeVce96rhXddyrjntVHfeq417Vca/quFd13KuOe1Ud96rjXtVxrzruu1HVca867lV13KuOe1XHveq4V9VxrzruVR33qo57Vce96rhX1XGvOu5VHfeqjntVx73quFfVca867lUd96rjXlXHveq4V9VxrzruVR33quNeVce96rhXddyrOu5VHfeq415Vx73quFd13Ks67lUd96rjXlXHveq4V3Xcq457VR33quNe1XGv6rgX9u4juZkcCcDoEaYkUhRFee9FeW/uf6uexawmZtE9vzKBrHjvBMgoRegjCaAA4Q4g3AFAuAMIdwCEOwDCHQDhDiDcAUC4Awh3AIQ7gHAHAOEOINwBQLgDCHcAhDuAcAcA4Q4g3AEQ7gAIdwCEO4BwBwDhDiDcARDuAAh3AIQ7gHAHAOEOINwBEO4Awh0AhDuAcAdAuPs3DCDcARDuAMIdAIQ7gHAHQLgDINwBEO4Awh0AhDuAcAdAuAMIdwAQ7gDCHQCEO4BwB0C4Awh3ABDuAMIdAOEOgHAHQLgDCHcAEO4Awh0A4Q6AcAdAuAMIdwAQ7gDCHQDhDiDcAUC4Awh3ABDuAMIdAOEOINwBQLi38rkaY9HFdMvfH6yT57aIeWyz+JXPVvsxE+4AINzrOB1irI11us8+ntt+yFObJHze2hr6sSXcAUC417EflESPPQw3n4y29WI+cJ0mrPyyo3DfF+4AINzreA9Koq8ehjsY7U8JER9J/u2y8G88/9df6VS4A4BwL+M2qoleOxhue6w/JfzrvuzWkcWko3AfboU7AAj3MqbfQUm018FwZwFz/XTxJe1O2U9bez11+7At3AFAuNfxMd4kmv5EDNbFvTIXIc/sKGHla12F+6ZwBwDhXkdUSO22H+1qvDeRHJU9q7nZVbhPlsIdAIR7GVG38x21Hy3m4G0Pp1OXMc/sIX7l8/Wuwj1jZOEOAMK97wYcJvPmo8VcdfnRwUML2iiesAvooK9u7+GHIeEOgHDn79oISqLz5pMdh8y10sHp1OuyV3hedxbu3zPhDgDCvYyLoCR6aj1Y1MWDHZxOfSz77fNHZ+E+3At3ABDuZQTdLNj+rZRRFw/eNH9kMdflDCfxK5899xbua8IdAIR7GUHv8ml/0971aFNvtezbiM576/bhWLgDgHAvYx60o+S59V7wqF0Z7U+n3sRs9054YNvdhfvwKdwBQLiXcRpURFeN95NEvRP2u/np1LuQuc7Kbs6vfRZDuAMg3Pnb9oOKqPFe8MOw1Gt+OjXmJUY7hT9Mdf55RbgDgHD/He9BRdR4L/hJWOq1Pp0adMIz4f7Ow/66fXieC3cAEO5VXAUV0WPbsXbDUu+u8QOLyd/nhBvNdzoM92FPuAOAcK9iuhITRF9txzoKK73Wp1OfQqZ6SVj5RY/hvi/cAUC4lxF1/cpry6GWgW/bbHw69S1kquuEj4hfPYb7hnAHAOFextoY9yBsBaZe4/tyjkOGOohf+O3QpVvhDgDCvYqoxt1uOdRdYOm1PZ0ac/H+JOGM5lOf4b4j3AFAuFcRtavkouVQm4Gl1/Z06kHITKcJK9/tM9xfhDsACPcyNkJ6aHLUcKTZ+mhLb7vsh5GNPsN9shDuACDcqwi67GPS8Ibs88jSa3s6NeZpbcUvfHXo1I1wBwDhXkXU9drn4xupg9OpId9bT5bxC3/vNdx3hTsACPcqor6ePhndjwj/8dDwYb2GTHScsPK3XsP9ZyrcAUC4FzEP2hDe8NU2sdupW55O3Sr7qI56DfeWPw0JdwCEO//MaUwPbTYbKHg7dcvTqWtVf0N47bbbM14+JdwBQLj/jv2YHlpvtgXhJjb0Wp5OjXnP7Wf5Z9L7XZjCHQCE+694GNs7KS+DS6/d6dTpSsQ8G3U/Hf7K0dxX4Q4Awr2Iq7Ed4jwNLr2HkT2q3YSVH/cb7sOTcAcA4V5EzNe4w7DWaJ75JDj02p1OfagarstJx+F+IdwBQLhX8RjTQ4+NxrmPDr12p1NjNgEl7Gna6rjbh++5cAcA4V7EddAF2Y3G2Y4Ovedmp1M3I8ZZSRjnrudwHw6EOwAI9yL2gnqo0aG/s/DQa3XsdhZy5f7ZCI4d/JlL4Q4Awr2IZVAP7bXZsv8THnqtTqfGvOR2J37hi0nX4X4k3AFAuFcR9FbL7SbDXI33G9qTqm8O3Rv6diXcAUC4F7E7pts63uM7b3NMz+l5Fr/wtc7DfUe4A4BwL2JnTDsQEl710+p0asgvIx8JC3/pPNw/hDsACPciYvZOD5NFi2EyXvXT5nRqzE7x6/iFz9c7D/f1hXAHAOFeQ1RYnY+mbv/Le5PHdFD1LsT7oXdbwh0AhHsRQbf1nTQYJeUcZJvTqSEX1E8S3j503X24vwl3ABDuRcS8kXPYbzBKSiS2OZ16VnWUj+7D/Wsq3AFAuNfwEJNDpw1GSYnE9VmLp/QVMcpd/Lpn392H+3Ao3AFAuNdwNZq+neZEYovTqZ9Vd3ef99/tGUd0hTsACPdfyd2VsfTtbU7ntTidehOyxX0Zv/CdAuG+KdwBQLgX8RiTQw/pgzzldF6L06khbzE6rro3v+AHGOEOAML9NwQd6bxLH2R3vF/QhrzFKOH8cNTPOWO44VO4AyDc+ceCLlHMfyPlUU7mjWb3fsJvIocVun24EO4AINxrWMbU0M9I5hjv7v3P+IWflAj375lwBwDhXkPQN9WvyWNsjXdnxXvEGBsJC78oEe7DvXAHAOFeQ9De8L3kMdayMi//3VL7EWPsJmzx+aoR7nfCHQCEew1B+xm2k8d4Saq8Sf67pU4j5niKX/dVjW5PuV9HuAOAcP8FQS/JST7yN1vPyrz006nzi5bUiQAAIABJREFUkNGu4hf+VCTch1XhDgDCvYSg5D0axceP/+VwDJ+sfqZlN2H9vhPhDgDCvYbNmC0li9QhEt/R+ZT8fEJGy/hBZKNKuD8KdwAQ7jVcjuGujsQLTLJPp4Z8cb0Tv+7VKt0+rM+FOwAI9xIexrD/IPHb3ezTqSH3dR6W/buKsCXcAUC4l3A1gi+mPzO/n809nbqYFH3p0H6dcN8X7gAg3EuY/tT/YvomM/NyT6fuRYzwUfWXghhfU+EOAMK9hMf6X0xfZmZe7unU66K37C+HQm6FOwAI9xKu68fQaWbl5W6sCPlYdR//FfNNpXDfFu4AINxL2IuJoYe8CeaTzMpL3QQUspEp4xqVy0rhvincAUC4l7CIyd67vAnux3t74GrVTj2uFO6TpXAHAOFeQswxwo+8AbZzMy/zdGrIjpO1sp8GozwIdwAQ7iXEvJv+J2+As9zKyzydehcxwF78urdKdfuwK9wBQLiXcBITQ5+l94F3cjr1JWJjyKLoB444K1PhDgDCvYLz4u+jvEquvMTTqdPngPUfJyx8s1a4D/fCHQCEewWz9dp37L1nH2XMO516GLH+y/h1zyfFwn1NuAOAcC8h5uvRi6zl72dX3nnak3mKWP5N/LoPinV7yq8Qwh0A4S67/1zMndtHWctPv3nwJO3JvBU9fHBdLdzzTmQIdwCEO3/iIWZHySJn9fk3D76lPZnjSc0PVC/lwv1JuAPwF3v3lpRatkRhuAku5SpXBURuchEQAcH+96pO1Ymoh4qKCoEcc2Ya/9eAbW6YD4O1MnOC4B7BgyYLJRr4e0oe8pJNp0paxRP87BBNTSiNCO4AABDcIxDtU0zUUZK+LSPZdKrkSthD0Lq1PuoEdwAACO4RbCJ3lBzTp7xU06kdRfEzfd3teME9xa1UBHcAAMEdXh9ap+koKZ/Th7xU06kTQe2nBHcNbQIG9ynBHQAAgnsEmjbxWjVF7csMIS/VdOpjzC2dOX5L3eyR4A4AAME9AtFilmWK2rcZQl6ird+LoG8L+kVES4I7AAAE9wgGkii0TlF6N0PGSzSd2lLU3g/ami/XIbgDAEBwj0CTfldxf3O4mE5VjB6cE7S4j0IG9x3BHQAAgnsEQ0kUOkZtJ3EynaqY8dwkaHH/DhncU10YRnAHABDc4bAr+T7B091WlpCXZDq1fC+ovK2ve1nENCe4AwBAcA9AdNXll77ySpaMl2Q6daaoPMF1tsOgwb1LcAcAgOAeQVMShVr6wnd52ipSTKeuFSs6ExQ+CRrcv8sEdwAACO4BTCVR6E3/quAjT8h7D/qdpJjAfAwa3JNdiEtwBwAQ3HGLuSQJ6S/7GWfKeCmmUxVvQSpBO3ySeCO4AwBAcA/gQZKEBvK6c60MT9APLZk7eNLXfQgb3F8J7gAAENwjOMXcsJernzrBdGo/5Bdyd7cPG9xLnwR3AAAI7gFoLs2Rt4Ln6qdOkICHQZ8pD8IG9+JAcAcAgOAeQDtkK/hXtoynn05VPLme6g/SZ9zcnmAmg+AOACC442blXsiLiubZMl5H/pW8xLxjaB04uJ+rBHcAAAju/jVKEcf9ptkyXjfkF5Kgifs5cHAvegR3AAAI7gFIWpNr4keYr9kinnw6VfEKZJDgHL1EDu4rgjsAAAT3ALqSJLSU1lyvZYt48ulUxdDBXn+MFqXIwX1AcAcAgOAewFCShNbSmt8zZjz1dKpi0WWCrSmtIrQZwR0AAIK7f31JENL2HrQzRjz1dKpi0eWD/hhNYwf3DsEdAACCu3/VD0UQOkprHmWMeF3t16FYdHlKcIxeYwf3I8EdAACCewBNRRC6LwsrLp8yRjxxO7Si5STBmvJGKXZwrzUI7gAAENz9W0mS0Jew4lnOiCeeTq0ISh7qD9FTEVyL4A4AAMHdv3m4IHT4xTu/j+FW/Mh+byS1J7gDAEBw9+9BEoTehBXnvetHOsdYPtsXfC7rD1EzenA/lQnuAAAQ3P2TdIwr+6rz3vXTVX4XS0HBG/0RyrhY30qf4A4AAMHdP8mOFuEMZ+ZBSOl0qqILqK0/Qr3wuT3Fp0RwBwAQ3HEryVZ04Qxn5pQonU5VdAGN9UfoLX5wbxLcAQAguPunCcLvvzYlKqdTBevQa3X9ETrGD+6lBcEdAACCu3ua1hPdDsJN5ognnE5V9Irv9CdIc4lXYmuCOwAABHf/JMOesv16isUrXuZux4JyK/oDNP4FuT3FNVUEdwAAwR232ity0Kuq2mXuhCecTh0Kyn0KOiWR2rlKcAcAgODu3laRg2rVSNU6mU7tBpulddK85H0qg+AOACC4w0pfkoNU93Xusyc83XTqINCbD0fNSzZWBHcAAAju7mlmCw9xwq2Xld+KMeEEcbT/K3J78UJwBwCA4O5fM9ADzEUpe8KTjTE+CYpt6Y9P53cE9+KB4A4AAMHdvZUiBonWELbyBzzZdKpiQ/2n/vhMfklwHxLcAQAguLs3V8Sg+7Kk1oqDhLcQfQ+jUCtw/m5xP/2S4L4huAMAQHB37ytQ58HOQcJTTacKEvCz/vQsf0luT3LHLMEdAEBwh7/EKOqudnFJZzvO76eD/vCY7+d86f3EKciJJbgDAEBw996jURRvikpdbDARTacqOpYSDFyaL5+f5vmzSV5PENwBAAR33KgdJt4OPQT3R823IJgRPiU4PI/WRc/zPOj/3/daJrgDAEBw964XJt762GCyiNK+39WfnQfzor9+9Hdngu91SXAHAIDg7l1Dshy9EeHx7lWeFF+C4gLSBBsOD7neEgiOQpvgDgAAwd29F0W8fbev88tFbtcEvGXMR8j7XC1We/uPq0lwBwCA4O7eXhFvO/Z1zn0Ed0n7vqBp+z5B0/Yg17E52H9epQXBHQAAgrt3W0W83dvXufIR3CXt+8/2dY70J+fTvOhxxrcva4I7AAAEd+8kWxZf7etsOrmrR/Fk9lXwzkP/xN38HcjPr0Ea2H9gXYI7AAAEd+8Ug5FFrWpdZr3mJLgLplPrggHhsf7kmL8naOb702l6iwjuAACCO26zU8TbvnWV705yu2I6VfB/+6jqD475WPP0x396XYT8qUNwBwAQ3OGwefxgXWXbS3AXNI937Ks86s/Nwvw9wfzHf/tT8MVWCO4AABDcvZOsa5laVznyEtwF06mCq6Xe9Oemlen6Jc3T/qJ4IbgDAEBw906yIH1n3Yl/8hLci0/zb0Bwn1Av4Jua0wV/XNDkfsnvBoI7AAAE9zwUV5KejUf9Zm5yu/106kKwlbyuH7U0X4VzyYp8xWuiLcEdAACCu3cTRbx9sK1x7Se4m3ehPIVYx/lPDfMW90tu7VoIFvGMCO4AABDcvZPMfbZsa3z2E9zN892bfY0r/amx/7lx0VoXQZP7R53gDgAAwd25XoDn0i9+gvvJ+vPfuP/Z9G8q5rv/L8rN0xgr+gnuAACCO0wp7v8xfi7dKPkJ7tbTqeVv+xb3hf7UmK//b17051uCL3ZKcAcAgODuneJxtu3WxJ6j3G79OFswd5tgs6H9TbaXtfcofso9EtwBACC4e7dXxFvTh75vnoK7cReQYO72WX9m7G97nV9WwKvgm50R3AEAILg7t1XEW9NN4htPwd14OlXQrb3Wnxn7n1IXrlFXXPjbIbgDAEBwd25ZOA9B5bOn4G48ndoMeZXQMXefimCJpvm1YQR3AADBnaBtTZKL995/WTiZTq1+ROzVrpofmcmFFdg32RdFqUFwBwCA4O7cTpBuLe8A2voK7qbTqX37+rr6EzPO/4ZG8Kbi0j57gjsAAAT35BT9wiXD62z2voK76XSq4EfJVn9iOuZFjy8toSL4ZvcEdwAACO7OKZZiF327+ga+gvvG8rMX/ChZ6k/MyLrm2sW/8xQrQk9lgjsAAAR3374U8fZgVt6i5Cu4f1t+9vZL9L/16bN8b1108+IaFE3ulz/3J7gDAEBwT+xRkIHs7qFsFc4Ybm0RXFs70p8X+8b81eVFKCYz3gjuAAAQ3J2buN6tV/EW3A2nUwUNHwm2kQ89jIUqbuV6JbgDAEBwd64tyEBns46NnbfgXnH9ySdo97D/oXfFS4x3wTdb+iS4AwBAcPdNkYGKB6PiBJvO/Uyn2kfgj6q+xf3kYfW85FwcCO4AABDcfasrxj+tGkr63nK75XSq/XTBUX9cZuZFT64p4yj4aicEdwAACO7OvQgykNWg39BdcLebTv0MOV9pv3v+qr58SYNXleAOAADB3bdnQQay2m7StXoUbdeWYjadKliY09Oflq550Vf15Y8Vv8l6BHcAAAjuvgnu77yqb1nYTVJq2PWlmE2n2i/MsbyxNll/T+2qostnwaldEdwBACC4+7ZUPLxcuOomeTGcBDWbTrVv027qD8uXl6I3gkM7ILgDAEBw903y8NKm62BuVM3esCna6nJSwcee4Inx2kvRHcXPzRnBHQAAgrtvil3pNjcBrYyq2d7dPXlbdWm/nsXycqh0AxHz6wqR7BsaEtwBACC4+6a4nbRrUlnTqJr+3d0id9L8p4N9i/tCf1YGXrb0lO8Fp/ZIcAcAgODum2C9yZ9d5ber14zmH6uWU5VG06lTn5/5f1uYF331GPNIcGprdYI7AAAEd9cEC8VLJgtOrC513f35j02cPZZ9Nf/Qn/VHZW5e9NW3HklW/LcI7gAAENx9exREoL5BXVYDiH/NP5pNp96bTKdavU2w7+FJ+5rg6mEIyTKkZ4I7AAAEd98mggh0cFTXX4m252s6VXCD0Jf+pNi/JhhfW0r5JDi1pzLBHQAAgrtritV6U4O6TpaJtlFy9WTbvtPjUX9Q7D5Dg65yxc9NkxdFBHcAAAjuOu+CBLS7vawHq8eo///nzBaimEyndp0u8vlP9mPMN9wZpbjxt2gT3AEAILi7Vi/ZJ6Dz7U0HVpf9TIyf0JpMp9rvVdzqD8rKvOgb7oyaKYJ7k+AO4A/27jUrkSaLwvAUVK5eEBQEQQRRFNBS5z+r/ly9vm6ryirzsnfEYa33GUBlmBU/dgbnnABAcI/tyhCB6leCX2hPUc8DfZMYik5SXPt5Kl90nbIjR091iln4BHcAAMEdASKydrKeqhPy/r//3GWkiHwpf9/v/r5KwyScbahqo388ENwBACC4h/ZsSEC3UQp4GifqQ25Bd2pP/r5n/m2i/9o4jrZrU7xGgjsAgOCOGhwzsa+jxMSJvKx8Vf+N6+/9PPdvk9tYMfnIEdzf2gR3AAAI7pE13w5iHaYqY+KFvLRC0J2qH0KeYJDhJtjXhqPI/d/CKoI7AAAE96BeDAmobpvfWrSO/10FFag79cc+nhS39SXu01oL2jmC+4rgDgAAwT20liEBXdb8FeBQtI67f/9F3bj62t2pC/nbfvFvEv24/069r40HR3C/IrgDAEBwD+3MkIBqFl3fyY/Hu3G6U/UD0RPcHKRvqK05Nf2HI7gL5pgS3AEAILgbbQ0BqF9vSY/6o2jZuPra5RT6avEEpdlr+aLrvseRI7iPCe4AABDcQzsOV3OgKmBu/f+flHWnbmq+bX0zcKdr3yKGDua6s/4d9w8crAnuAAAQ3EOb6QNQo16WHOnDYZjuVP34zVP/Fhnqt8i25pIWjuCe4BuI4A4AILijhnNDAqo1oFB2XdLS0V1Zszv1Uf6uW/u4RWpPDF02HMl9QHAHAIDgHtm9IQA91lnQQLSI0ad/U9ed+hCtxCNB2NTfGVX/ltIrR3C/ILgDAEBwj6xrOLu8qbMg1YDKviXn1eyqnMjLkk78Je7vAdtAbxzB/bhJcAcAgOAe2UQfgGq1cG4c4XAX4k8zfCUlGD6ur8uvef3Sx8eEY4zpp8n/BHcAAAjuERkGdNRp4ZSNMPkpHI5jdKfq65Ju/BtkLF90p/5lryeWIvcewR0AAIJ7ZM+GAFSjhVM1wuTnESHTGN2p+jbPhX+D6OcOKSbhTBzBfUNwBwCA4B6ZoRKiTpwcW8JhkO7UvvxN//BvEP2k/5VgVStHcE/QMUBwBwAQ3BGgNuWT2/zZ9pcaEll3aq3aFPmFnyP//pjrt8eZYFmeIvcFwR0AAIJ7ZC/6/HOd/3z3l5PxEN2pS/mL3u1lKdVWsCxPkXuf4A4AAME9spY+/1S/YGerWsKRqcPyqUZ36kD+op/922MXaHfYi9zfmwR3AAAI7oE5ig6WVRezMCUwXXdqjZGBt5G6gLOV9wiuXzJ9byoGVRLcAQAguBttDfnnMnfP4a/FOt1OgO7Utfo1vzb3cXeMJQsbWIJ7i+AOAADBPTL92JCD86prOXVN5JZVVlTvTtVfQTrzb46HqKfauk+xzyYEdwAACO6R6Qd1V27ya3dcR/6ye6aqDyE/Cnp2/Vf6+7kE1y9Jv/GSz9ckuAMACO6oTH8t0MFVxaWoStF/H8j9mD93LuSveejfHFfyRZ+KVnZrCe6PBHcAAAjugd0bbrLp5v2G+P3DYSj72yp3p8rvDHrzl7gv9VMXV6KlXVqC+zXBHQAAgntgXcNI7IpnwaqqnZ2vCKf6CEZ5bcfavzcMI4fOVNvWUuT+1CW4AwBAcA9sEqbi4NX3+Ozdqe0n9Uvu+bfGjX5rbFVr21iO3AcEdwAACO6B6RsQK6bbI+OBf/bu1KH8Jd/v4zfdsWxtniL3G4I7AAAE98AMt9pXS7eq2YNPXzSQZu9OfVS/446/quNEX0XVj9yb8Y8RwR0AAIJ7YHN9/KnWN6k6Fd9YD7wrdqfu1O94498ZhluOdCMs22+W5D4nuAMAQHCPq3kYJP6oCjO+GlySvTtVPlgxwS2frTBty19ZW4L7OcEdAACCe2Av+vizqLAM2XibLweXyIa6XFR6x/rZPQnaKPWXHKmuX/rQswT3F4I7AAAE98AMB6tVjoNlk7m3zjqcivX78ors3y+ZkjNMXFTW90wtwT3BeyW4AwAI7qjMMK27ykU2qhPUrweXPOc9NJYfD0/8+8Jwx9FKuLymp8h9QXAHAIDgHtdSn36qTP1T1SzPvvzX7/KWac/UbzjB3ELDwMUz5fquLcF9R3AHAIDgHtixPv4syx+gvlvbC5uyC5AeQ7ziBAfDht6HrXJ955bg/tokuAMAQHCPa6aPP5elFyE7Er83d1pW6U7dxo7AX9Lf9Sq8funD0BLclYNvCO4AAII71AxHl+Wn6qluKGr84WKim5zV5fI2ggQXBRmaP/vSBcp+o/nZLcEdAACCe1whItrOnKuzdqfKB/ckqMQ2jFsca1c4swT3CcEdAACCe1yGuX9XpRehuqHowl2KU6WWQl4u/uzfFYYLjsRVKGPPQMgtwR0AAIJ7XBN9+umWXMJJwxxpddMDy3en6i+nPbLvCcO0ReX1S9pvsdQfRQR3AADBHVVd6NPPtOQSBqoHz//0hIzdqXP56BP/njC0fm7U3xavluA+I7gDAEBwj+tBn37KHkurqsDf/jjNL2N36sMeZktDx3JLvUZPkftbm+AOAADBPay5Pv2UPZZWVYGv/em5U7YMSPfNYOryTBSKz9RrfLQE9wqzTAnuAAAQ3FPR12AfnGaqqP7jML+m7uukdI/lqfrt3vm3hKEMRd71OfcE9xXBHQAAgntc+ksy38pdQCmrqB4k6LYsWwbU7uR9uUEaPw2z548twX1EcAcAgOAe160+/cxLLUA22W/552dscpUByefkr/07wlCF0tevsu85cp8T3AEAILiHNdCHn0WWBPa3w9JVru5U+bzxnn9HGCKxoTD/2RPcxwR3AAAI7mEtc48QGSU41c3WnSoPwVP/jjAUoQz1qzzyBPcXgjsAAAT3uEby8FOqnGOb4qw0W3fqqKF9teXH2kRIxJ32XuzbRC+Y4A4AILgjTmVEqTuCzlKcRefqTj0R53b5RUZpalAsq955jtzPCO4AABDcwzJct7Ms8fhVklNd2eycXal3e6l+s7f+/WAIxC3HOh88wf2C4A4AAME9rKk+/JS5xkY16Pw0yedBye7U3h5eEDTak1PsrSe4vzYJ7gAAENyj6nbk4ee8+NNlg85v/vqYhepPa5Sqgb4Wv9jGiX07OPLwdl++MEyNtAR3AADBHSKTnGO7Zef9f59BqetOLTXWRX0H6cS/Gxb6KGy61ejCE9x7BHcAAAjuYd3Is89Vhgr7o78+pvmeY9D3D/WLXfl3gyEO9/fmE+P7miuCOwAABPec9F1+JepJZokm2WTpTj1Tv9gEI0+u9uZSo2XDEtwbS4I7AAAE96jm+vBTvJ5EVUxy/c1zWhl+TdA91Fss/tmJIQ0P9+cb48MDwR0AAIJ7VM1DefYpPO1cdtvPd5XJWbpTN/tRLG79keDg4KltWuuNJ7jPCO4AABDcw1rnG4YtK9O5TPWFUOLXBN21T+lmjK/0QXizRx8ZH97aBHcAAAjuUd3ma/BTHZp+OycxR3fq3R4WcehHDHmuX3KV9Xy4J7gDAEBwj2qgr45oJs6J31eey35WKN6d+qx+rUf2rdBt6MPw2T59ZVi/NAjuAACCO+pa6rPPvGhOTJamM3Snqicrvvq3wsCQg5f7VNdTtv+Y4A4AAME9Lf0dlItiD75M1w0rK4gu3p2qPhDu+3dCSx+DR/v1mZHmlw2COwCA4I6K+rmqDXqq5919+yjdZUhFu1O7nf2Yh/7ZRp+CfZ8bza6pyH1McAcAgOAe1VgefdbFHqwqPC9SU/+aOtZN1S/1zr4R5N8a5hR86gnua4I7AAAE96jkEbNgObZs1Msm4UdC4SPkc/E7PWzaN8K9IQUPjetteYJ7p0twBwCA4B5UW3/QWqgjUXZna5HKHNnQy6K9i+oCpGv/RtAPBvVdvyTtkfjFgOAOAADBParTPNFHNi+xyMTB5N2p6pbfc/8+eNFn4I1zvY7Sng8XBHcAAAjuUekvj+8VeexO9bRtgYdtE1/QI78eaGrfBu03fQb2DkXfeIL7cZPgDgAAwT2ohzyzRK5UOavQH/ma9uhbPavQWnPi6nVwXr9kqu1J1AdMcAcAENxRzVyefIoUgsvOpGeF/sjrtN2p6kz54t8G54YIvLSu+N4U3HsEdwAACO5Byca7lCoEH6Q9Ak/cnboWv9Fb/za41ifgkXfF3SdPcN8Q3AEAILhHtZZHn2nCJF2s6Fz2ndA4yfEtdOn/fDvUJ+C+ec0vnuBe6L+Y4A4AAME9B32t8GO60FVwzMsyaXfqUYafMGq6MyRg9yWkPU9wP1gQ3AEAILgHNZAnn+8n6jVVM0wmBf/I45SlOQvx+5z4N8HYEICH5jVPTcG9T3AHAIDgHpR8duHB6bfPHKaeup20O3Ulfp8r/yaY6fOvfRSOY4Llh/cmwR0AAIJ7UCN5ZPs2+cgOeB9Sl1UU6bhUTxg/s2+B5qs+//qbPNemI/cpwR0AAIJ7UH158pkne+S84N+Ysju1KR530ljat8DcEH9b9lWfm4J7i+AOAADBPSh9ffO37X2qQ/7DolUNKbtTh+K3+R/27nUhjaWJwvAl7ETOAgICIiiKIILK4f7v6vuS7J1ojIeBtXoK8z4XMDrT82PRU1Xd978Cc0P89X8n6JqC+4DgDgAAwT2oYfItS1mMvv3wTSbsTlWn4I7/FWgZ4q//O4FjhuV3K4I7AAAE95jKFXXweS9PN9KfTCTrvmy9+6fuxU9z5n8FavIGZffxS9+dm4L7nOAOAADBPai6Ovis3/mDsrEr7Q/fY8Lu1P7B7f+uDnSooqvI/ZzgDgAAwT2oC3nyWab5pZChbTNdd2pVvHtd878AM0P4PUvw4k5MwX1TJbgDAEBwj0mf29ppanMylGPoulNP3/lL08Pbuu4Ywm83wYtb3JqS+ynBHQAAgntMR/Lg03zz7w3zyLTJulPV9RsJCq57+uh7l+QUo5EpuF8Q3AEAILjHpN+4HKWJtmd5ZLxR4jA5sa//tSH6LpK8uWem4N4juAMAQHAP6jZt8JFF2yzlGMm6U2vaR7n1b11fHewhRq4i9w8f7EVwBwCA4J7YWJ17CtUU0bZSznCPp4m6U9Xb1wkmnFwYkm8jyYtbXJuC+wnBHQAAgntMbXnwGaYoqa9nucdj2bCXtzsXG4cXIQeG5Hud5s1tmYL7I8EdAACCe0zH8vN33uqolA2xucmnA7OZ9OvF8ABXP12R+NwU3CvHBHcAAAjuMcnHinRSVGZcZbrHRN2p4n6Bu7J98RuG4NtK9OJeuorcGwR3AAAI7jHJKw7qKSozjjLd40mS3eTi14Or2bgx5N55qje3Zgru9wR3AAAI7jHJx+q9McZbdrLoOts9yrpT36zfVm8Bj/2LXzfk3m6qN9dV5L4uEtwBACC4h9RNOE9PFqAzzltJ052qPoXWf4ZntaKPvZtksffBVSvTJbgDAEBwD6ksD2+v15/LBqo38yrkb6Yo4P/IXE2JU0PqTTeUZeUK7mOCOwAABPeY5OUSrx/Ac57XZrSsqmKU7kHW/Us/NqTeUro3t+fJ7YUBwR0AAIJ7TPIzeG5f7d7cpjkI6SVZd2ot3aeLG//SLwyxt53uze2YdtwLS4I7AAAE95Dkp96v7d2b/az3OE3QnapuFvBPJSwbStxTHb/kaCr46YHgDgAAwT2kI3nuWbq7CTuZuzAL/g1l8Xiegv8coKkh8/YSvrlLV3AfEdwBACC4x7ROVS0hK23IPiq87+9Ovdc+xL5/4ZuGzNtK+eb2TcF9Uya4AwBAcA/pXJ17mu6cNcl8jwm6U8UpsuNf+FtD5p2nfHNdRe4JJnES3AEABHeE2Hh9JdzKpqnvMCrc352qmxX/3lBNleLGEHknKd/cK1dwvyG4AwBAcA9JPs37lTrndo6jwv3dqeqnuLKve9eQeDdJTx29LpiCe4/gDgAAwT0k9V7xa32VsqnhO4wK93enir9b1PzrfmJIvI9pX11Xkfsbp/8S3AEAILjnSX6QzfCPf+Yxz0GJ9u7U0cE1eZ4bAm8p7Zt74QruZwR3AAAI7iG1ksQeXUn1LufjyGa+vNadWju0Jk+Zt3ZEAAAfoElEQVTZcVgfm5Zp0XAF91uCOwAABPeQztSxp2Mtqa7leo+v/PXVwdVqTAx5t3B94FVe/6lUCe4AABDcI5J3Kdat0Xmn43GGX7z7/eK9323x8H6u5dHUOXBtuTcI7gAAENwjKt+p9yuLzoKck13u0d2dWkoyUVNpZIi796lf3RtXcO8Q3AEAILiHVE8xzVvWAjvc6R5l3anjP17+UfsAT/yLXjPE3XnqN7ftCu7rIsEdAACCe0TyfcvZy79xnXP5saw79fyPnZ7iw4y69jW/dMTdSeq4W624knuX4A4AAME9IvkJlCVjEfgg55LudYJOzwTnGD0Ywu4m/TZ13RXcmwR3AAAI7hEdJTiHR7arf7HbPXq7U8UxOME0wntD2H1M/+qWXMG9TnAHAIDgHtJanHq2L//EwliGk7ao4k/dqZ2D2+7tGcJuKf2be+oK7qknWxLcAQAEd3yM/BDNF7vSZVlu3nXCuWxy4Nh58R+m9hVfOsJuO/2b6ytynxHcAQAguEfUtEc4WaXK113rqGWb4uf2+Jjg+J/ZZ9mkXriCe4vgDgAAwT0iecHBi1qPk9zLv+fG7tSh9uklqK/uGKJuL49Xd+wK7psywR0AAIJ7QPKj418cICQ77me86z3qzod92Z0qPoU0Qa143xB17/N4daeu4J6gXongDgAguCNAjnux+So77mfnOmpdlX3jxbVb2qfnrxW/LhiS7jyPN1d+7G+erbYEdwAAwR3vUw8HLBw/v/4qQB21sTu1Z314Bg1H0p3k8uo+uoJ7n+AOAADBPaK5OvUMn1//yraVn0NZ97m50ihBYrwxBN0cjl/6pukK7l9WBHcAAAjuAXXVoefs+fUvAsz68HWntrXP7sK/3gNDzn3M59Ud2oL7nOAOAADBPSB5pXDHFBTPIvw4+X0rVjzZ5Mq+3MeOEvdxPq9uceMK7ucEdwAACO4R1cWhZ/Ds6ro55909fpzYulPF51ct7avdtuTcUj5qruB+VyW4AwBAcA9IXfRceTYFe+q5bF4/Tn7fW14f2jj00heEmO5DcAcAENyR3ZU69EwsDYR7HU0k60797RCoo4Mbh14nlO9Q70VwBwCA4B7CSh16ZpZakpt97vFB9V9srT96HuyLratc+txqBHcAAAjuEa3FoedpxC5uQ/RtTkzdqeIyo0v7Wp+SyXf4bERwBwCA4B6EuMHy2XDAyxijtYuy0TnPu1MX0ge39o9DHxPJP+aE4A4AAME9IPU5NltHjco6SGl36dnvAe08wpF/rR+J5B+zILgDAEBwD0hePrEydIXuGWplx0DdeipwvjuzL7V8aP+nVTgmuAMAQHCPR34mz5NZen3VNZv73aOuO/VpOctc+9y69qUeksiT9FQQ3AEABHeY9MWZp2n4TTDd7xY93akd6WPb+EvcmwTyj2oR3AEAILgHdC/OPL/KWtpRKhd01ehPu1MH0sd261/pWwL5Tp9WCO4AABDcgxBXfDw5AFQ2xKS/7z3K5r886U6tamuMmvaFFjfTfm5DgjsAAAT3eLq2xj7ZEJO9T7KUTVx/Muxyqn1s04Nb6E9tTHAHAIDgHo98I3Yqv/DeZ4rOVP/J118lFCfSh1ap2hf6hDj+cQOCOwAABPeAFuLMcyZvCd37IEvdSVBHP685kj60BJPDR8TxDN+NlgR3AAAI7vHciDNPR108v//AFd3m/685gTVpjXvJ/2VlTRzPYE5wBwCA4B7PlanKoGUoLI/TnXqtfWht+zJPCOO7DUciuAMAQHAPYyWOPJXyj+v2Au1G67tT26aOXps5YTzTZ54qwR0AAIJ7PDVx5pmIt6Qb+9+irDv1Z9nOWPrIEvRCtgjjmZwS3AEAILjHo+5anH2/akN2PUGfoL47VXua0cXh/Tz77C4I7gAAENzjaYojz833q5ZUl6spOjO/irtTi1vpI7uyL/IRUTybHsEdAACCezyn4sjzqO0HbSnu8VH7q0S4ha/6qPCOB6J4RpcEdwAACO7hVAvaxLP9dtHynepyJ4p7VHenzg5td/eeJJ7He0dwBwAQ3KHVF0ee1f+vOZRdbai4RdnMy3+7Uy+kD+zev8Y9kviuA4QI7gAAENzjUO/GfhsDc6K6WEUyl09X4v2jgqIufWAP9iVeEsQzv3jHBHcAAAju4ahHfDf/EY6q0UxK1DWTXmkLgZ6NqvG5Iojv9PuT4A4AAME9lok48Xw7dVI2fVA0lk/bndqVPq+1f4k75PCIBUwEdwAAwR1Zt6M38kl6uuNYZ5p7lE2nXOi/UYwOr43hb7AuEtwBACC4h7PQJp7CsbA0QzSVT9udqu0KOLMv8HGBHJ5dl+AOAADBPZwbceKZ6qaubEXbntruVO0G9sS+wA1S+A7GBHcAAAju4ahz3dk/A9WlblXlQLLu1Jl68v2meHC/zP4KhQHBHQAAgns4K3Hkua9Wwu163gq7U7VnzZ77F3hADN8luS8J7gAAENzDWWsTz51spsyXtuoWld2pTenTatqXt0qJ+04eCO4AABDcwxmF3fSUnYIjKwfaFMWPa2hf3jYZPOq4H4I7AIDgjoyaUaNTP2A50KVuSP03mqNh03xt+MtsygR3AAAI7tFMo0Yn4SE4snKg2VJ6iwv/8i7I4Ls5JbgDAEBwD6YYtghaOOJc1p26lW64fyn5S9wrRPCdG5EJ7gAAENyDiXqypvAMnPFfu6s7JYHnXqlFcAcAENyh0okZnCrCIuOghxDp2m8Pr4MhviOCOwAABPdo5jFzk7L+exnzFhOc8vM/9u40u43cCsDoEnwkUhI1UfM8UKM1U/vfVac7Oek4sWPLqgc8VN27AuJU/fhI4gEvAjzBVi3hDoBwpxtXA9hj/Nb/JX5/gmEuwH/XnXAHAOGebjw1Z9xddrnG45RL3Ah/tif6+/f3ak2EOwAI92xynhj42uUSc06nPoY/2qn+zvy9SrgDINz5oJR39Lx1usTtjEvcj3+0x/L79+0IdwAQ7tmkPHOl2yvnZ8MMw/GC/P7Ed8excAcA4Z5MyjNXpt1W02rCJd4Ode64FVfCHQCEezYZq/am/3tG4g8KPxTfn7Ep3AFAuGdzmq+Zur6bKOFFRKuDfLAtWRfuACDckxknPHuk67uJEk6nbsU/2Dfx/alvjzPhDgDCPZmb/g9uJpxOvQ9/rufaO/sUgnAHQLjzMZNRumR67v8+/vjRx3vpnf1PEeEOgHDngw76X7XptnsvxB82uCW90z8j4Q6AcOdjdrIV07zzYko3nXoc/1hXpXeus42EOwDCnU97zhZML50vcTfbEqfhT/VVeH/WknAHAOGezFW2YLrofInpplNPwp/qrfD+rAPhDgDCPZnxPFkwbXe/uXg/1wq/Lg9vA1SDXoU7AAj3ZF6S9dKs+yUmm059iX+o+7r70+6FOwAI92SWcuXSfsASk02nXoQ/05nsbmKEWLgDINz5kI1cubQVsMRk06m74c/0UnZ3sKNpItwBQLjn8pgrlw4DlriW6pap0ST8iPAz2d3FtIVwBwDhnkyuI79DTlxJteV7Pf6RHqnuDpwJdwAQ7smkGt1cmfR+idfhTzTXPwzNWhXuACDck5n2/+foVEvcGNrYQrOuhDsACPdcbvq/PSHTdOpoFv5ErzV3J6bCHQCEey6TTBsrbnu/d6TAjZzrmrsTD8IdAIR7MplGGRdjlphoOnUn/pvYiubu5s+RNeEOAMI9l508qfQedFLiVt//U8i6Mahtl8IdAIR7Ls95SinqtspE06mv4c/zQnF3ZEu4A4Bwz+UqTylt9n4At8AZgw+KO/kfQMIdAOHObxrP05TSbu8HcON/xF22xb0zJ8IdAIR7Li/9nwY8yLLE+/CneaO3O3Mh3AFAuOey1P+jEtNMp8Zf6rOptztzJNwBQLjnkuamzaewJR4OZ9f0nd7u7i+gR+EOAMI9lcf+7yPJsn/kOPxhJppY6IFn4Q4Awj2X1SSZtBe2wizTqdPwZ7mntjt0KtwBQLjncpqjkr4G7iNJMp0af0zJVG13aD4R7gAg3FNJEnsPgUt8yvHVZHkoX8L6Yle4A4BwTyXJDvDrwCXmmE59id/i/h7ywVcWUhs1+U4KdwCEO83uAN8IXOJJihXGnwt+1drYcCd2wp7YvnAHAOGey1GKrH3s/XeT+I0XQf8sXOV+fwMPND0X7gAg3Afyi+UHrIYuMcN06ih+1DHmpqn5OPf7O1lp+Bwg4Q6AcOcjnvt/9F6G6dT1+CcZc7LnS/YX+KXhsQThDoBw5yPO+3/GeYbp1OtWH+RS9hc47lyklTXhDgDCPZPxQoKsvQldYobp1I3wBxn018l29hf4quWHJtwBEO7k2GqQZQN44DboX15h/I+3MRuCRrP0L3Dc5b9Pwh0AhHsqS/XD/Sh4ifVPzjmIf477AzoT8Rtx49VvY+EOAMI9k4364b7TbNplWeGXL48xH3xr0C/wnnAHAOGeyax+uD8HL/G++govwx/j7SCvXwreCXUh3AFAuA9kj3CWm272qq/wtdUNI3sNvMBxUxrrwh0AhHsqp7WrNvyOn+Xa06mr8U8x5papr+MGXuC4AyETjuYKdwCE+6BNa4f7XfgSa0+nxu8Un41CPvhDCy9w4FUEz8IdAIR7JtWPOY/fSVx7OjV+p3jQhOZSE29w3GavU+EOAMJ9IMN9We74qT2deh6+wuvhXEFU8nvZfFm4A4Bwz6T2RpL4jcSVp1Pfx60+w1kTL3DggZA3wh0AhPswfrDMcsdP5enU+A0Xa6NWH03y/4yuhTsACPdMnvs+ufnly3rVFU7D17c92OuX/hJ3IOSBcAcA4Z7Jed1wP+z9nwrxh6EvtftouhB4MNKicAcA4Z7IeKFq1p70/U+FefwW9/VWv3Gk/+p5KNwBQLgPY6fBL1gpcXDHVb/PqQ/a5P11uZU3eL/hhyfcARDufMBFzawtcq38+GvFFW6GL2835oM/NPMGx22FWpkIdwAQ7om2ymzXDPcy53bUnE6NP1Iw6JvXUjOvcOAbvCHcAUC4JzKrGe6XRZZ4VnEvUPxvti+DaNbye4X+tCPcAUC4D2OLcJZjOypOp8bvBVoO2gj02M4bfBf2+FbHwh0AhHsiW/Wy9q3MCitOp8ZvODkJStaG3uDAAyGvhDsACPdhZM/PHBfaxz+vtsLt8MVtDvv6pT8FHgi5KdwBQLgnclIv3Etl0UOtBY7WWt0nctjSKxy322tduAOAcE8kcLbvZ3YLLfG61gKPmv034aSlVzhu+ng0E+4AINwTOerx79H/dFtrhWfhS9tr+GaszgQeCHkr3AFAuA/i98qfOOjBJujax10eDmGLyE//NIq7YmtLuAOAcE+k2u/RT6VWWG06Nf5MxdOWb8bKvtH/HxbGwh0AhHse1X6Pvi+2xErTqfvxX0nehn79UuT/Dtk2+wt3AIT74I0XKoV7uUOyr/v6l8J5s38VtPLdc0m4A4BwH8RGg//ra7ldCJd1VvgcvrB71y/9JexAyNGBcAcA4Z7IRZ2sfej9bqDz8IUFXXt72torHDhg/SrcAUC457FdJ2sLbkKosxvoLf4vhdWYTz71CleYxBDuAAh3fmpWJ9xLDkC+1Fhg/O/WiwOYyPwlgQdCHgt3ABDuQ9ghnGYAssp06mH4sp6Drl+amNP4exRjItwBEO5yOY+tGllbdACyynTqXviynly/9C+BB0JuC3cAhLtcHkT1JBmAXKywwHn8Fvegv0qu23uFA8ePz4Q7AMJdLudxUiPciw5Ajt/LL/AufFWPQZ/80navlGdjCncAhDtfllcqhPtN0SVWmE7dbHYD0GuD73DggZDnwh0A4U4eR+WzdlR25m+pj99MgmL1rcVXOPBAyKlwB0C4M4ifK3/kqOwKy0+nFjia5cD1S/8WeCDkg3AHQLiTx235cN8pu8Ly06nxubc2cv3S3+IOhBytCXcAhDtpnJcP99vCSyw+nRp/MeyG65f+Q+DRSJfCHQDhThoVDl0pPfF3V3qB8cd/B90q1eD1S8H/qTwJdwCEO0PYZ/ADC+PCKyw9nVpgf0XQSPF6o+9w3IGQ72PhDoBwJ42L/h1yXmhfSb3h28koZo/7WaPvcOCE9YlwB0C4k8Z26XC/KL3C18ILPGv2mV16h6u/rcIdAOHOD0UdUFJxB/h/eyu7wPj8jdr8s9joOxx4IOSRcAdAuDOEDcLf3wE+6/s2/sfwBT24fulbx3Gv66NwB0C4k8ZW2azd7/s2/vgFTlZcv/StwAMhn4U7AMKdIUTP92yVX2HZ6dT4EwRvgj75tNl3OPBAyFPhDoBwJ42TsuF+WH6Fj0UXGP8T7WbQJ7+x3+t/zZeFOwDCnSyWV4p27V6FJRadTo2f8HwJ2s49afclvo57nrvCHQDhThrrJbN2pcYPmMcFFxg/4Tme9/oAld+yG/dAr4U7AMKdNM5KhnuVyzlLTqfG74mO2tt01vA7vDwPe6D7wh0A4U4atyXDvcrvlyUvmYrfwz8N+uS3Lb/EgX+qnAt3AIQ7WSyWDPcql3POCi7wqtlGXWz5JQ48G2kq3AEQ7mQxfi/Yta9VlrhabH3zcauP633c8ksc+O3zRbgDINxJo+DNopUu5yw3nXocvparZj95qIO4eeo14Q6AcCeLgrOblepws9gCN5vdFLLZ9ksceCDkhnAHQLiTRcHZzc2+r/AkfC2nrl/6nsADIZ+EOwDCnSzWRsW6ttJtNsWmU1fiLzEKuk3qD/buNKetJAzD6BYMGIMxhMHM8xAzhWH/u0onUqtbrU7gR96quqVzVnArLimPcd2vhnz90g/BgZCvY+EOgHCnFfulunal1nHhUm+nPsRXch568qOhb+Lgewxz4Q6AcKcV26XC/aDWCk8LLfAivpJF6Ml3h76JF7lPdUu4AyDcacVhqXCvVoel3k7NHwVKfcm6G/omDg6EnAl3AIQ7rZiXCvdFrRXulVlfgaNA09ALCeeD38W5gZArV8IdAOFOIyZr3Vwr+v/GG2XWlz8o/hJ68mFfv/RTcCDknXAHQLjTilkv14r+Upn3b2/i67hz/VKFX1VOhTsAwp1WnJUJ94qXx5d5OzV/Vc+u65d++btRbiDk20S4AyDcacRlmXBfrbfCMm+n5s9Cpw5y73Wwi4MDIW+FOwDCnUYsjzr5g3SNcxQlp11ehV5NrTZg/08KDoS8Ee4ACHcaMX4vEu6P9VZY5HbY/LTLy8F+5SjgZchfyYQ7AMKd+qcM/jGtucISb6fmh4+cDfYrRwm5gZCjZeEOgHCnEUWOgFedzVHidth83R2Fnvy5i10cHAh5KNwBEO40clSmyBHwLzWX+KWHXxRiB37Ou9jGwV38VbgDINxpRJEj4CedRt3ftuOL2Ak9+dK4i10cHAi5ti7cARDuNKLAEfC67VPgq8kivojVPv+e/McEp/XvCHcAhDuNKHAE/Kj3rybX8TWkbri96GQXBwdC7gp3AIQ7jTjMh/tZ519N8udN1tdcv/RbwYGQ07FwB0C404Z5D8MSfyv+durxYM/pd3H90k8HQ/49RbgDINz5lMl9PNwrTy65Hf7QnAvXL30gOBByS7gDINxpxGz4J0k+OGeSfjs1PzTnwfVLlX6T+MuDcAdAuNP/3yobmVxykF3f/ST+q0jqiPtzN7s4OBCy6nki4Q6AcOdfLtPhXn1ySfjt1G/DPexz3c82Dg6EvBTuAAh32rCcDved2is8HPoXk63Qk7+N+9nGwYGQ28IdAOFOI16zXVt/cslJdoH5kYpfXb/0ocfcB/w+Fu4ACHfacJzt2v3qC8y+nboSvxd2/DbY3wr6eJPhRLgDINxpw1Y23Le7brrRaBZ//Nio/Z2etvFq7iNeFe4ACHfasJcN98P6K3xKru8m/vipG6T6uX7ph+C4/iPhDoBwpw0b2Tnn8/orjL6duhl//NTAlIOutnFwIOToRbgDINzp/nTwaLQ2qb/A5NupK1fxI+7voUd/6msbBwdCLoQ7AMKdNkRPkswaWGDy7dT8n62v+8vRiOBAyGPhDoBwp/viKXEE/BOOcuvbHe5Bn+u+tvFj7uvZ/bpwB0C404R5MtwvW1hh8DeFu/jDpy5+7en6pfSRrx3hDoBwpwmT+2C4v7SwwsWQ1zcNPfm33vZxcCDkmXAHQLjThlmueF6bWGDu7dRp/NnPU49+0ds2Dg6EnAp3AIQ7bbjJFc9pEwtcXxvu9VLPrl/6pHFwIOS5cAdAuNOEy1zwbLWxwtjbqfnJLKnz+fk5lsUFB0J+Ee4ACHea8JILnts2Vrg73Mks+6En3+9vHz/n9vGDcAdAuNOG19j1RBttLDD1dup7fDLLY+qjeepvGwcHQtbayMIdAOHOf2wvhcwaWeA8tL78EffN1Eez6HAfz1L/WEvvm8IdAOEOgHAHQLgDCHcAEO4Awh0A4Q4g3AFAuAMIdwAQ7gDCHQDhDiDcAUC4Awh3AIQ7AMIdAOEOINwBQLgDCHcAhDsAwh0A4Q4g3AFAuAMIdwCEO4BwBwDhDiDcAUC4Awh3AIQ7gHAHAOEOINwBEO4ACHcAhDuAcAcA4Q4g3AEQ7gDCHQCEO4BwBwDhDiDcARDuAMIdAIQ7gHAHQLgDINwBEO4Awh0AhDuAcAdAuAMg3AEQ7gDCHQCEO4BwB0C4Awh3ABDuAMIdAIQ7gHAHQLgDCHcAEO4Awh0A4Q6AcAdAuAMIdwAQ7gDCHQDhDiDcAUC4Awh3ABDuAMIdAOEOINwBQLgDCHcAhDsAwh0A4Q4g3AFAuAMIdwCEOwDCHQDhDiDcAUC4Awh3AIQ7gHAHAOEOINwBQLgDCHcAhDuAcAcA4Q4g3AEQ7gAIdwCEO4BwBwDhDiDcARDuAMLd/xsACHcA4Q4Awh1AuAMg3AGEOwAIdwDhDoBwB0C4AyDcAYQ7AAh3AOEOgHAHQLgDINwBhDsACHcA4Q6AcAcQ7gAg3AGEOwAIdwDhDoBwBxDuACDcAYQ7AMIdAOEOgHAHEO4AINwBhDsAwh0A4Q6AcAcQ7gAg3AGEOwDCHUC4A4BwBxDuAAh3AIQ7AMIdQLgDgHAHEO4ACHcAhDsAwh1AuAOAcAcQ7gAIdwDhDgDCHUC4A4BwBxDuAAh3AOEOAMIdQLgDINwBEO4ACHcA4Q4Awh1AuAMg3AEQ7gAIdwDhDgDCHUC4AyDcAYQ7AAh3AOEOgHD33zCAcAdAuAMI9+/s1rEJAAAMwzDIkv8/zgtdC9ITNgAYdwDjDoBxB8C4A2DcAYw7ABh3AOMOgHEHMO4AYNwBjDsAGHcA4w6AcQcw7gBg3AGMOwDGHQDjDoBxBzDuAGDcAYw7AMYdAOMOgHEHMO4AYNwBjDsAxh3AuAOAcQcw7gBg3AGMOwDGHcC4A4BxBzDuABh3AIw7AMYdwLgDgHEHMO4AGHcA4w4Axh3AuAOAcQcw7gAYdwDjDgDGHcC4A2DcATDuABh3AOMOAMYdwLgDYNwBMO4AGHcA4w4Axh3AuANg3AGMOwAYdwDjDgDGHcC4A/BBCsBZdAMAAAAAAAAAAAAAAAAAAAAAAAAAAAAAAAAAAAAAAAAAAAAAAAAAAAAAAAAAAAAAAAAAAAAAAAAAAAAAAAAAAAAAAAAAAAAAAAAAAAAAAAAAAAAAAAAAAAAAAAAAAAAAAAAAAAAAAAAAAAAAAAAAAAAAAAAAAAAAAAAAAAAAAAAAAAAAAAAAAAAAAAAAAAAAAAAAAAAAAAAAAAAAAAAAAAAAAAAAAAAAAAAAAAAAAAAAAAAAAAAAAAAAAAAAAAAAAAAAAAAAAAAAAAAAAAAAAAAAAAAAAAAAAAAAAAAAAAAAAAAAAAAAAAAAAAAAAAAAAAAAAAAAAAAAAAAAAAAAAAAAAAAAAAAAAAAAAAAAAAAAAAAAAAAAAAAAAAAAAAAAAAAAAAAAAAAAAAAAAAAAAAAAAAAAAAAAAAAAAAAAAAAAAAAAAAAAAAAAAAAAAAAAAAAAAAAAAAAAAAAAAAAAAAAAAAAAAAAAAAAAAAAAAAAAAAAAAAAAAAAAAAAAAAAAAAAAAAAAAAAAAAAAAAAAAABg7MGBAAAAAACQ/2sjqKqqqqqqqqqqqqqqqqqqqqqqqqqqqqqqqqqqqqqqqqqqqqqqqqqqqqqqqqqqqqqqqqqqqqqqqqqqqqqqqqqqqqqqqqqqqqqqqqqqqqqqqqqqqqqqqqqqqqqqqqqqqqqqqqqqqqqqqqqqqqqqqqqqqqqqqqqqqqqqqqqqqqqqqqqqqqqqqqqqqqqqqqqqqqqqqqqqqqqqqqqqqqqqqqqqqqqqqqqqqqqqqqqqqqqqqqqqqqqqqqqqqqqqqqqqqqqqqqqqqqqqqqqqqqqqqqqqqqqqqqqqqqqqqqqqqqqqqqqqqqqqqqqqqqqqqqqqqqqqqqqqqqqqqqqqqqqqqqqqqqqqqqqqqqqqqqqqqqqqqqqqqqqqqqqqqqqqqqqqqqqqqqqqqqqqqqqqqqqqqqqqqqqqqqqqqqqqqqqqqqqqqqqqqqqqqqqqqqqqqqqqqqqqqqqqqqqqqqqqqqqqqqqqqqqqqqqqqqqqqqqqqqqqqqqqqqqqqqqqqqqqqqqqqqqqqqqqqqqqqqqqqqqqqqqqqqqqqqqqqqqqqqqqqqqqqqqqqqqqqqqqqqqqqqqqqqqqqqqqqqqqqqqqqqqqqqqqqqqqqqqqqqqqqqqqqqqqqqqqqqqqqqqqqqqqqqqqqqqqqqqqqqqqqqqqqqqqqqqqqqqqqqqqqqqqqqqqqqqqqqq0B4cEAAAAAIL+v/aGAQAAAAAAAAAAAAAAAAAAAAAAAAAAAAAAAAAAAAAAAAAAAAAAAAAAAAAAAAAAAAAAAAAAAAAAAAAAAHgLsxcSHbQ6t2kAAAAASUVORK5CYII=;" vertex="1" parent="1">
          <mxGeometry x="100" y="1232" width="90.01" height="60" as="geometry" />
        </mxCell>
        <mxCell id="X1ndT8c5_JUK3LnOh9pi-4" value="" style="image;sketch=0;aspect=fixed;html=1;points=[];align=center;fontSize=12;image=img/lib/mscae/Cache_Redis_Product.svg;" vertex="1" parent="1">
          <mxGeometry x="240" y="1237.66" width="50" height="42" as="geometry" />
        </mxCell>
      </root>
    </mxGraphModel>
  </diagram>
</mxfile>
